<svg width="29" height="14" viewBox="0 0 29 14" fill="none" xmlns="http://www.w3.org/2000/svg">
<g opacity="0.7">
<path d="M15.1983 8.13867L13.4307 11H12.0977L14.1094 7.87012C13.1979 7.55436 12.7422 6.8903 12.7422 5.87793C12.7422 5.22363 12.9685 4.72396 13.4209 4.37891C13.8734 4.03385 14.5391 3.86133 15.418 3.86133H17.5616V11H16.3897V8.13867H15.1983ZM16.3897 4.83789H15.4619C14.9704 4.83789 14.5928 4.92578 14.3291 5.10156C14.0687 5.27409 13.9385 5.55729 13.9385 5.95117C13.9385 6.33529 14.0655 6.63477 14.3194 6.84961C14.5733 7.06445 14.9672 7.17188 15.501 7.17188H16.3897V4.83789ZM18.8555 8.80762V7.83105H21.3653V8.80762H18.8555ZM27.0977 11L26.3848 9.01758H23.6553L22.9571 11H21.7266L24.3975 3.83203H25.667L28.3379 11H27.0977ZM26.0772 8.01172L25.4082 6.06836C25.3594 5.93815 25.291 5.73307 25.2032 5.45312C25.1185 5.17318 25.0599 4.9681 25.0274 4.83789C24.9395 5.23828 24.8109 5.67611 24.6416 6.15137L23.9971 8.01172H26.0772Z" fill="#9873FF"/>
<path d="M2 7L2.705 7.705L5.5 4.915L5.5 11L6.5 11L6.5 4.915L9.29 7.71L10 7L6 3L2 7Z" fill="#b79dff"/>
</g>
</svg>
