<svg width="29" height="14" viewBox="0 0 29 14" fill="none" xmlns="http://www.w3.org/2000/svg">
<g opacity="0.7">
<path d="M15.1981 8.13867L13.4305 11H12.0975L14.1092 7.87012C13.1977 7.55436 12.742 6.8903 12.742 5.87793C12.742 5.22363 12.9683 4.72396 13.4207 4.37891C13.8732 4.03385 14.5389 3.86133 15.4178 3.86133H17.5614V11H16.3895V8.13867H15.1981ZM16.3895 4.83789H15.4617C14.9702 4.83789 14.5926 4.92578 14.3289 5.10156C14.0685 5.27409 13.9383 5.55729 13.9383 5.95117C13.9383 6.33529 14.0653 6.63477 14.3192 6.84961C14.5731 7.06445 14.967 7.17188 15.5008 7.17188H16.3895V4.83789ZM18.8553 8.80762V7.83105H21.3651V8.80762H18.8553ZM27.0975 11L26.3846 9.01758H23.6551L22.9569 11H21.7264L24.3973 3.83203H25.6668L28.3377 11H27.0975ZM26.077 8.01172L25.408 6.06836C25.3592 5.93815 25.2908 5.73307 25.203 5.45312C25.1183 5.17318 25.0597 4.9681 25.0272 4.83789C24.9393 5.23828 24.8107 5.67611 24.6414 6.15137L23.9969 8.01172H26.077Z" fill="#9873FF"/>
<path d="M10 7L9.295 6.295L6.5 9.085L6.5 3H5.5L5.5 9.085L2.71 6.29L2 7L6 11L10 7Z" fill="#9873FF"/>
</g>
</svg>
