<svg width="29" height="14" viewBox="0 0 29 14" fill="none" xmlns="http://www.w3.org/2000/svg">
<g opacity="0.7">
<path d="M17.371 11L16.6581 9.01758H13.9286L13.2304 11H11.9999L14.6708 3.83203H15.9404L18.6113 11H17.371ZM16.3505 8.01172L15.6816 6.06836C15.6328 5.93815 15.5644 5.73307 15.4765 5.45312C15.3919 5.17318 15.3333 4.9681 15.3007 4.83789C15.2128 5.23828 15.0842 5.67611 14.915 6.15137L14.2704 8.01172H16.3505ZM18.9628 8.80762V7.83105H21.4726V8.80762H18.9628ZM25.0322 8.13867L23.2646 11H21.9316L23.9433 7.87012C23.0318 7.55436 22.5761 6.8903 22.5761 5.87793C22.5761 5.22363 22.8023 4.72396 23.2548 4.37891C23.7073 4.03385 24.373 3.86133 25.2519 3.86133H27.3954V11H26.2236V8.13867H25.0322ZM26.2236 4.83789H25.2958C24.8043 4.83789 24.4267 4.92578 24.163 5.10156C23.9026 5.27409 23.7724 5.55729 23.7724 5.95117C23.7724 6.33529 23.8994 6.63477 24.1533 6.84961C24.4072 7.06445 24.801 7.17188 25.3349 7.17188H26.2236V4.83789Z" fill="#9873FF"/>
<path d="M2 7L2.705 7.705L5.5 4.915L5.5 11L6.5 11L6.5 4.915L9.29 7.71L10 7L6 3L2 7Z" fill="#9873FF"/>
</g>
</svg>
